<svg width="196" height="86" viewBox="0 0 196 86" fill="none" xmlns="http://www.w3.org/2000/svg">
<g clip-path="url(#clip0_11863_105728)">
<path d="M145.21 85.6401L144.21 85.7401L145.21 85.6401Z" fill="#D99D8A"/>
<path d="M140.75 30.5899C145.745 30.5926 150.535 32.5787 154.066 36.1116C157.597 39.6445 159.58 44.435 159.58 49.43C159.581 53.9728 157.932 58.3613 154.94 61.7799L168.63 72.6699C165.789 76.2679 162.264 79.2687 158.258 81.4997C154.253 83.7307 149.846 85.1479 145.29 85.67C153.817 84.6891 161.686 80.6092 167.402 74.2061C173.117 67.8029 176.28 59.5229 176.29 50.9399C176.29 41.6574 172.603 32.755 166.039 26.1912C159.475 19.6274 150.573 15.94 141.29 15.94C136.022 15.9362 130.82 17.1254 126.077 19.4184C121.333 21.7114 117.17 25.0487 113.9 29.1799L125.45 38.3699C127.201 35.9529 129.502 33.9869 132.162 32.6341C134.822 31.2814 137.766 30.5807 140.75 30.5899V30.5899Z" fill="#D99D8A"/>
<path d="M142.83 85.8198C142.35 85.8198 141.83 85.8198 141.38 85.8198C141.87 85.8598 142.35 85.8398 142.83 85.8198Z" fill="#D8805E"/>
<path d="M119.51 78.2601C125.702 83.2032 133.396 85.8843 141.32 85.8601C132.051 85.839 123.169 82.1421 116.623 75.5806C110.076 69.0192 106.4 60.1289 106.4 50.8601C106.388 42.9714 109.057 35.3128 113.97 29.1401V29.1401C108.203 36.3932 105.547 45.6373 106.586 54.8453C107.624 64.0534 112.272 72.4738 119.51 78.2601V78.2601Z" fill="#D8805E"/>
<path d="M144.17 85.7402L143.32 85.8002L144.17 85.7402Z" fill="#D8805E"/>
<path d="M154.94 61.7802L125.52 38.3702L113.97 29.1802C109.058 35.3529 106.389 43.0114 106.4 50.9002C106.4 60.1689 110.077 69.0592 116.623 75.6207C123.17 82.1821 132.052 85.879 141.32 85.9002H141.38C141.87 85.9002 142.38 85.9002 142.83 85.9002H143.32L144.17 85.8402L145.17 85.7402H145.25C149.806 85.2182 154.213 83.8009 158.218 81.5699C162.224 79.3389 165.749 76.3381 168.59 72.7402L154.94 61.7802Z" fill="#D8805E"/>
<path d="M183.279 12.0032L169.769 24.3315L174.264 29.2586L187.775 16.9303L183.279 12.0032Z" fill="#D99D8A"/>
<path d="M165.412 -0.0125987L157.107 14.3721L162.884 17.7071L171.189 3.3224L165.412 -0.0125987Z" fill="#D99D8A"/>
<path d="M193.98 31.9071L177.709 35.2471L179.05 41.7808L195.321 38.4409L193.98 31.9071Z" fill="#D8805E"/>
<path d="M52.96 54.8002L32.58 15.9302H0L36.67 85.8602L52.96 54.8002Z" fill="#D99D8A"/>
<path d="M73.3501 15.9302L64.8801 32.0902L56.4101 15.9302H32.5801L52.9601 54.8002L69.2501 85.8602L105.93 15.9302H73.3501Z" fill="#D8805E"/>
<path d="M73.3502 15.9302H56.4102L64.8802 32.0902L73.3502 15.9302Z" fill="#D99D8A"/>
</g>
<defs>
<clipPath id="clip0_11863_105728">
<rect width="195.33" height="85.85" fill="white"/>
</clipPath>
</defs>
</svg>
